<svg width="200" height="32" viewBox="0 0 200 32" fill="none" xmlns="http://www.w3.org/2000/svg">
    <path opacity="0.1" fill-rule="evenodd" clip-rule="evenodd"
        d="M0 16C0 7.16344 7.16344 0 16 0C24.8366 0 32 7.16344 32 16C32 24.8366 24.8366 32 16 32C7.16344 32 0 24.8366 0 16Z"
        fill="white" />
    <path fill-rule="evenodd" clip-rule="evenodd"
        d="M16.0008 7.46655C13.6833 7.46655 13.3924 7.47669 12.4822 7.51811C11.5737 7.55971 10.9536 7.70353 10.4111 7.91456C9.84981 8.13252 9.37372 8.42407 8.8994 8.89857C8.42473 9.37288 8.13317 9.84898 7.9145 10.41C7.70294 10.9528 7.55894 11.5731 7.51805 12.4812C7.47734 13.3914 7.46667 13.6824 7.46667 16C7.46667 18.3175 7.47699 18.6075 7.51823 19.5177C7.56001 20.4262 7.70383 21.0462 7.91468 21.5888C8.13282 22.1501 8.42437 22.6262 8.89887 23.1005C9.37301 23.5752 9.8491 23.8674 10.41 24.0854C10.9529 24.2964 11.5732 24.4402 12.4815 24.4818C13.3917 24.5233 13.6824 24.5334 15.9997 24.5334C18.3175 24.5334 18.6074 24.5233 19.5176 24.4818C20.4261 24.4402 21.0469 24.2964 21.5898 24.0854C22.1509 23.8674 22.6263 23.5752 23.1004 23.1005C23.5751 22.6262 23.8667 22.1501 24.0853 21.589C24.2951 21.0462 24.4391 20.426 24.4818 19.5179C24.5227 18.6076 24.5333 18.3175 24.5333 16C24.5333 13.6824 24.5227 13.3916 24.4818 12.4814C24.4391 11.5729 24.2951 10.9528 24.0853 10.4102C23.8667 9.84898 23.5751 9.37288 23.1004 8.89857C22.6258 8.4239 22.1511 8.13234 21.5893 7.91456C21.0453 7.70353 20.4249 7.55971 19.5164 7.51811C18.6062 7.47669 18.3164 7.46655 15.9981 7.46655H16.0008ZM15.2353 9.00432C15.4625 9.00397 15.716 9.00432 16.0008 9.00432C18.2792 9.00432 18.5492 9.0125 19.449 9.05339C20.281 9.09143 20.7326 9.23046 21.0334 9.34726C21.4316 9.50193 21.7155 9.68682 22.014 9.98549C22.3127 10.2842 22.4976 10.5686 22.6526 10.9668C22.7694 11.2673 22.9086 11.7188 22.9464 12.5508C22.9873 13.4504 22.9962 13.7206 22.9962 15.998C22.9962 18.2754 22.9873 18.5456 22.9464 19.4451C22.9084 20.2772 22.7694 20.7287 22.6526 21.0292C22.4979 21.4274 22.3127 21.7109 22.014 22.0094C21.7153 22.3081 21.4318 22.493 21.0334 22.6477C20.7329 22.765 20.281 22.9037 19.449 22.9417C18.5494 22.9826 18.2792 22.9915 16.0008 22.9915C13.7222 22.9915 13.4521 22.9826 12.5526 22.9417C11.7205 22.9033 11.269 22.7643 10.968 22.6475C10.5698 22.4928 10.2853 22.3079 9.98666 22.0093C9.68799 21.7106 9.5031 21.4269 9.34808 21.0284C9.23128 20.728 9.09208 20.2764 9.05421 19.4444C9.01332 18.5449 9.00514 18.2746 9.00514 15.9959C9.00514 13.7171 9.01332 13.4483 9.05421 12.5487C9.09226 11.7167 9.23128 11.2651 9.34808 10.9643C9.50275 10.5661 9.68799 10.2817 9.98666 9.983C10.2853 9.68433 10.5698 9.49944 10.968 9.34441C11.2688 9.22708 11.7205 9.08841 12.5526 9.05019C13.3398 9.01463 13.6448 9.00397 15.2353 9.00219V9.00432ZM20.5558 10.4212C19.9905 10.4212 19.5318 10.8794 19.5318 11.4449C19.5318 12.0102 19.9905 12.4689 20.5558 12.4689C21.1212 12.4689 21.5799 12.0102 21.5799 11.4449C21.5799 10.8795 21.1212 10.4212 20.5558 10.4212ZM16.0008 11.6177C13.5807 11.6177 11.6186 13.5798 11.6186 16C11.6186 18.4201 13.5807 20.3813 16.0008 20.3813C18.4209 20.3813 20.3824 18.4201 20.3824 16C20.3824 13.5798 18.4209 11.6177 16.0008 11.6177ZM16.0008 13.1555C17.5717 13.1555 18.8453 14.4289 18.8453 16C18.8453 17.5708 17.5717 18.8444 16.0008 18.8444C14.4298 18.8444 13.1563 17.5708 13.1563 16C13.1563 14.4289 14.4298 13.1555 16.0008 13.1555Z"
        fill="white" />
    <path opacity="0.1" fill-rule="evenodd" clip-rule="evenodd"
        d="M56 16C56 7.16344 63.1634 0 72 0C80.8366 0 88 7.16344 88 16C88 24.8366 80.8366 32 72 32C63.1634 32 56 24.8366 56 16Z"
        fill="white" />
    <path fill-rule="evenodd" clip-rule="evenodd"
        d="M80.5333 15.9881C80.5333 16.5651 80.4746 17.1414 80.3592 17.7032C80.2467 18.2516 80.08 18.79 79.8617 19.3047C79.6483 19.8103 79.3837 20.2975 79.0745 20.7518C78.77 21.2033 78.4191 21.6269 78.0337 22.013C77.6474 22.3975 77.2224 22.7474 76.7711 23.0532C76.3152 23.3603 75.8273 23.6245 75.3215 23.8388C74.806 24.056 74.2664 24.2224 73.7184 24.3348C73.1559 24.4505 72.5776 24.5095 71.9996 24.5095C71.4213 24.5095 70.8429 24.4505 70.2812 24.3348C69.7324 24.2224 69.1928 24.056 68.6778 23.8388C68.1719 23.6245 67.6836 23.3603 67.2277 23.0532C66.7764 22.7474 66.3514 22.3975 65.966 22.013C65.5801 21.6269 65.2293 21.2033 64.9243 20.7518C64.6167 20.2975 64.3517 19.8102 64.1376 19.3047C63.9192 18.79 63.7521 18.2516 63.6392 17.7032C63.525 17.1414 63.4667 16.5651 63.4667 15.9881C63.4667 15.4105 63.525 14.833 63.6392 14.2725C63.7521 13.7241 63.9192 13.1848 64.1376 12.671C64.3518 12.165 64.6168 11.6774 64.9243 11.223C65.2293 10.7711 65.5802 10.3484 65.966 9.96183C66.3515 9.57734 66.7765 9.22828 67.2278 8.92287C67.6836 8.61453 68.172 8.35035 68.6778 8.13563C69.1929 7.91797 69.7324 7.75115 70.2812 7.63965C70.8429 7.52482 71.4213 7.46655 71.9997 7.46655C72.5776 7.46655 73.1559 7.52482 73.7185 7.63965C74.2664 7.75118 74.806 7.91801 75.3215 8.13563C75.8273 8.35032 76.3153 8.61453 76.7711 8.92287C77.2224 9.22828 77.6475 9.57734 78.0337 9.96183C78.4191 10.3484 78.77 10.7711 79.0746 11.223C79.3837 11.6774 79.6483 12.1651 79.8617 12.671C80.08 13.1848 80.2467 13.7241 80.3592 14.2725C80.4746 14.833 80.5333 15.4105 80.5333 15.9881ZM68.8903 9.40593C66.8581 10.3642 65.3413 12.2341 64.8684 14.4876C65.0605 14.4893 68.0973 14.5276 71.5962 13.5993C70.3349 11.3615 68.9874 9.53537 68.8903 9.40593ZM72.2 14.7198C68.4477 15.8416 64.8471 15.7609 64.718 15.7559C64.7159 15.8341 64.7121 15.9098 64.7121 15.988C64.7121 17.8575 65.4184 19.5618 66.5793 20.8505C66.5768 20.8467 68.5711 17.3137 72.5038 16.0438C72.5988 16.0122 72.6955 15.9839 72.7913 15.9564C72.6084 15.5429 72.4087 15.1284 72.2 14.7198ZM76.8124 10.5265C75.5293 9.39677 73.8447 8.71152 71.9996 8.71152C71.4075 8.71152 70.8329 8.78309 70.2824 8.9154C70.3916 9.06188 71.7604 10.8752 73.0067 13.1603C75.7565 12.1309 76.7944 10.5531 76.8124 10.5265ZM73.288 17.1622C73.2718 17.1676 73.2556 17.1723 73.2397 17.1781C68.94 18.6748 67.5358 21.6913 67.5206 21.7242C68.7578 22.685 70.3096 23.2646 71.9996 23.2646C73.0088 23.2646 73.9701 23.0594 74.8448 22.6879C74.7368 22.0521 74.3135 19.8235 73.288 17.1622ZM76.0719 22.023C77.7082 20.9204 78.8703 19.1695 79.1945 17.1414C79.0445 17.0931 77.0057 16.4486 74.6535 16.8252C75.6093 19.4482 75.9977 21.5844 76.0719 22.023ZM73.5676 14.2446C73.7368 14.5917 73.9006 14.9449 74.0518 15.2998C74.1056 15.4272 74.1581 15.552 74.2093 15.6768C76.7128 15.3622 79.1792 15.8915 79.2846 15.9131C79.2679 14.188 78.65 12.6048 77.6275 11.3653C77.6137 11.3848 76.4449 13.0712 73.5676 14.2446Z"
        fill="white" />
    <path opacity="0.1" fill-rule="evenodd" clip-rule="evenodd"
        d="M112 16C112 7.16344 119.163 0 128 0C136.837 0 144 7.16344 144 16C144 24.8366 136.837 32 128 32C119.163 32 112 24.8366 112 16Z"
        fill="white" />
    <path fill-rule="evenodd" clip-rule="evenodd"
        d="M127.521 13.0051L127.554 13.5587L126.995 13.4909C124.958 13.2311 123.178 12.3498 121.668 10.8696L120.929 10.1352L120.739 10.6776C120.336 11.8865 120.593 13.1633 121.433 14.022C121.88 14.4965 121.779 14.5643 121.007 14.2819C120.739 14.1915 120.504 14.1237 120.481 14.1576C120.403 14.2367 120.672 15.2648 120.884 15.6716C121.175 16.2365 121.768 16.7902 122.417 17.1178L122.966 17.3777L122.317 17.389C121.69 17.389 121.668 17.4003 121.735 17.6376C121.959 18.372 122.843 19.1516 123.828 19.4906L124.521 19.7278L123.917 20.0894C123.022 20.6091 121.97 20.9029 120.918 20.9255C120.414 20.9368 120 20.982 120 21.0159C120 21.1289 121.365 21.7616 122.16 22.0102C124.544 22.7446 127.375 22.4282 129.502 21.1741C131.013 20.2815 132.523 18.5076 133.229 16.7902C133.609 15.875 133.99 14.2028 133.99 13.4006C133.99 12.8808 134.023 12.813 134.65 12.1916C135.019 11.83 135.366 11.4346 135.433 11.3216C135.545 11.1069 135.534 11.1069 134.963 11.299C134.012 11.638 133.878 11.5928 134.348 11.0843C134.695 10.7228 135.109 10.0674 135.109 9.87536C135.109 9.84146 134.941 9.89796 134.751 9.99964C134.549 10.1126 134.102 10.2821 133.766 10.3838L133.161 10.5759L132.613 10.203C132.311 9.99964 131.886 9.77367 131.662 9.70588C131.091 9.5477 130.218 9.57029 129.703 9.75107C128.304 10.2595 127.42 11.5702 127.521 13.0051Z"
        fill="white" />
    <path opacity="0.1" fill-rule="evenodd" clip-rule="evenodd"
        d="M168 16C168 7.16344 175.163 0 184 0C192.837 0 200 7.16344 200 16C200 24.8366 192.837 32 184 32C175.163 32 168 24.8366 168 16Z"
        fill="white" />
    <path fill-rule="evenodd" clip-rule="evenodd"
        d="M190.668 10.4995C191.402 10.701 191.98 11.2948 192.177 12.0488C192.533 13.4153 192.533 16.2666 192.533 16.2666C192.533 16.2666 192.533 19.1178 192.177 20.4845C191.98 21.2385 191.402 21.8322 190.668 22.0338C189.337 22.4 184 22.4 184 22.4C184 22.4 178.663 22.4 177.332 22.0338C176.598 21.8322 176.019 21.2385 175.823 20.4845C175.467 19.1178 175.467 16.2666 175.467 16.2666C175.467 16.2666 175.467 13.4153 175.823 12.0488C176.019 11.2948 176.598 10.701 177.332 10.4995C178.663 10.1333 184 10.1333 184 10.1333C184 10.1333 189.337 10.1333 190.668 10.4995ZM182.4 13.8666V19.1999L186.667 16.5333L182.4 13.8666Z"
        fill="white" />
</svg>